<?xml version="1.0" encoding="UTF-8" standalone="no"?>
<svg width="16px" height="16px" viewBox="0 0 16 16" version="1.1" xmlns="http://www.w3.org/2000/svg" xmlns:xlink="http://www.w3.org/1999/xlink">
    <!-- Generator: sketchtool 41 (35326) - http://www.bohemiancoding.com/sketch -->
    <title>C597C319-F75B-445C-BF52-F56DFEAA003C</title>
    <desc>Created with sketchtool.</desc>
    <defs></defs>
    <g id="Pages" stroke="none" stroke-width="1" fill="none" fill-rule="evenodd">
        <g id="PDP---Stock" transform="translate(-966.000000, -634.000000)" fill="#BBAC8D">
            <g id="Hero" transform="translate(0.000000, 218.000000)">
                <g id="Group" transform="translate(771.000000, 407.000000)">
                    <path d="M203.008138,9 C201.901316,9 200.86233,9.20888349 199.891149,9.62665462 C198.919968,10.0444258 198.073587,10.6141031 197.351983,11.3357074 C196.63038,12.0573117 196.057988,12.9036919 195.634791,13.874873 C195.211595,14.8460542 195,15.8850401 195,16.9918622 C195,18.0986842 195.211595,19.1376702 195.634791,20.1088513 C196.057988,21.0800324 196.63038,21.9291252 197.351983,22.6561548 C198.073587,23.3831845 198.919968,23.9555761 199.891149,24.373347 C200.86233,24.7911178 201.901316,25 203.008138,25 C204.11496,25 205.153946,24.7911178 206.125127,24.373347 C207.096308,23.9555761 207.942688,23.3831845 208.664293,22.6561548 C209.385897,21.9291252 209.958287,21.0800324 210.381483,20.1088513 C210.804682,19.1376702 211.016276,18.0986842 211.016276,16.9918622 C211.016276,15.8850401 210.804682,14.8460542 210.381483,13.874873 C209.958287,12.9036919 209.385897,12.0573117 208.664293,11.3357074 C207.942688,10.6141031 207.096308,10.0444258 206.125127,9.62665462 C205.153946,9.20888349 204.11496,9 203.008138,9 Z M203.756866,11.8809775 C204.147509,11.8809775 204.41336,11.9786377 204.554426,12.1739581 C204.69549,12.3692785 204.766022,12.5971503 204.766022,12.8575796 C204.766022,13.1722632 204.643948,13.457104 204.399796,13.712106 C204.155645,13.9671101 203.811125,14.0946091 203.366225,14.0946091 C202.997285,14.0946091 202.723297,14.0078014 202.544252,13.8341818 C202.365208,13.6605623 202.281112,13.4218401 202.291963,13.1180069 C202.291963,12.8575775 202.408611,12.5863019 202.641913,12.3041717 C202.875212,12.0220415 203.24686,11.8809775 203.756866,11.8809775 Z M201.754833,21.7934906 C201.494403,21.7934906 201.290947,21.6795547 201.144456,21.4516788 C200.997965,21.2238028 201.016953,20.7517837 201.201423,20.0356067 L201.81994,17.5289923 C201.874194,17.3228214 201.904035,17.1763322 201.90946,17.0895224 C201.914885,17.0027126 201.885046,16.9593088 201.81994,16.9593088 C201.74398,16.9593088 201.564938,17.0162757 201.282807,17.1302136 C201.000677,17.2441516 200.756528,17.3716505 200.550355,17.5127167 L200.289927,17.0732446 C200.941,16.5306872 201.594774,16.1074971 202.251272,15.8036639 C202.907767,15.4998286 203.393351,15.3479162 203.708037,15.3479162 C203.979315,15.3479162 204.142082,15.4944034 204.196336,15.7873862 C204.250592,16.0803689 204.207189,16.4710056 204.066122,16.9593088 L203.366225,19.6124103 C203.311969,19.8402862 203.292981,20.0003386 203.309256,20.0925736 C203.325534,20.1848085 203.366225,20.2309271 203.431332,20.2309271 C203.507291,20.2309271 203.659204,20.1820959 203.88708,20.0844357 C204.114956,19.9867755 204.359103,19.8402862 204.619532,19.6449658 L204.928789,20.0356067 C204.299419,20.6649739 203.680911,21.1152922 203.073245,21.386572 C202.465578,21.6578517 202.02611,21.7934906 201.754833,21.7934906 Z" id="icon-info-gold-16x16"></path>
                </g>
            </g>
        </g>
    </g>
</svg>